<svg width="90" height="28" viewBox="0 0 90 28" fill="none" xmlns="http://www.w3.org/2000/svg">
<path d="M40.363 26.6675C38.6087 26.6675 37.2148 26.2469 36.1815 25.4058C35.1481 24.5407 34.6314 23.0147 34.6314 20.8278V11.9962H31.5674V8.78802H34.6314L35.1001 4.24605H38.4525V8.78802H43.4991V11.9962H38.4525V20.8278C38.4525 21.8131 38.6567 22.498 39.0653 22.8825C39.4978 23.243 40.2308 23.4232 41.2641 23.4232H43.3188V26.6675H40.363ZM44.5292 26.6675V11.6487H47.4058L47.6783 14.495C48.2031 13.5059 48.9299 12.7287 49.8584 12.1635C50.8072 11.5781 51.9477 11.2854 53.28 11.2854V14.6464H52.4019C51.5137 14.6464 50.7164 14.7978 50.0098 15.1006C49.3235 15.3832 48.7684 15.8778 48.3444 16.5843C47.9407 17.2707 47.7388 18.2295 47.7388 19.4609V26.6675H44.5292ZM55.7291 8.80244C55.1236 8.80244 54.6189 8.62076 54.2152 8.2574C53.8316 7.87386 53.6398 7.39947 53.6398 6.83425C53.6398 6.26903 53.8316 5.80474 54.2152 5.44138C54.6189 5.05784 55.1236 4.86607 55.7291 4.86607C56.3347 4.86607 56.8293 5.05784 57.2129 5.44138C57.6166 5.80474 57.8185 6.26903 57.8185 6.83425C57.8185 7.39947 57.6166 7.87386 57.2129 8.2574C56.8293 8.62076 56.3347 8.80244 55.7291 8.80244ZM54.1243 26.6675V11.6487H57.334V26.6675H54.1243ZM64.5384 27.0308C63.2667 27.0308 62.217 26.8189 61.3893 26.395C60.5617 25.971 59.946 25.4159 59.5423 24.7296C59.1385 24.0231 58.9367 23.256 58.9367 22.4283C58.9367 20.9749 59.5019 19.8243 60.6323 18.9764C61.7628 18.1286 63.3777 17.7047 65.4771 17.7047H69.4135V17.4322C69.4135 16.2613 69.0905 15.3832 68.4445 14.7978C67.8187 14.2124 67.0012 13.9197 65.9919 13.9197C65.1036 13.9197 64.3265 14.1418 63.6603 14.5859C63.0143 15.0098 62.6207 15.6457 62.4794 16.4935H59.2697C59.3707 15.4034 59.734 14.4748 60.3598 13.7078C61.0058 12.9205 61.8132 12.325 62.7822 11.9212C63.7713 11.4973 64.8513 11.2854 66.0221 11.2854C68.1215 11.2854 69.7465 11.8405 70.8972 12.9508C72.0478 14.0408 72.6231 15.5346 72.6231 17.4322V26.6675H69.8374L69.5649 24.0937C69.1409 24.9213 68.5253 25.6178 67.7178 26.183C66.9103 26.7482 65.8505 27.0308 64.5384 27.0308ZM65.1743 24.4268C66.0423 24.4268 66.769 24.2249 67.3544 23.8212C67.96 23.3973 68.4243 22.8421 68.7473 22.1558C69.0905 21.4695 69.3024 20.7125 69.3832 19.8848H65.8102C64.5384 19.8848 63.63 20.1069 63.085 20.551C62.5601 20.9951 62.2977 21.5502 62.2977 22.2164C62.2977 22.9027 62.5501 23.4477 63.0547 23.8515C63.5796 24.235 64.2861 24.4268 65.1743 24.4268ZM81.0891 27.0308C79.6357 27.0308 78.3539 26.6877 77.2436 26.0013C76.1334 25.315 75.2653 24.3763 74.6396 23.1853C74.0138 21.9943 73.7009 20.6418 73.7009 19.1278C73.7009 17.6138 74.0138 16.2714 74.6396 15.1006C75.2653 13.9096 76.1334 12.981 77.2436 12.3149C78.3741 11.6285 79.666 11.2854 81.1194 11.2854C82.3104 11.2854 83.35 11.5175 84.2382 11.9818C85.1466 12.4461 85.8531 13.1022 86.3578 13.95V4.86607H89.5675V26.6675H86.6909L86.3578 24.3359C85.8733 25.0425 85.2072 25.6682 84.3593 26.2133C83.5115 26.7583 82.4214 27.0308 81.0891 27.0308ZM81.6645 24.2451C83.0371 24.2451 84.1575 23.7707 85.0255 22.822C85.9137 21.8732 86.3578 20.6519 86.3578 19.1581C86.3578 17.6441 85.9137 16.4228 85.0255 15.4943C84.1575 14.5455 83.0371 14.0711 81.6645 14.0711C80.2918 14.0711 79.1613 14.5455 78.2731 15.4943C77.3849 16.4228 76.9408 17.6441 76.9408 19.1581C76.9408 20.1472 77.1427 21.0254 77.5464 21.7924C77.9501 22.5595 78.5053 23.1651 79.2118 23.6092C79.9385 24.0331 80.7561 24.2451 81.6645 24.2451Z" fill="white"/>
<path d="M12.8716 3.26588C13.5094 2.05743 15.2892 2.22049 15.6968 3.52473L17.4377 9.09555C18.0835 11.1623 17.9971 13.3885 17.1929 15.399L16.0258 18.3167C13.77 23.9563 8.30792 27.6543 2.23392 27.6543C1.21965 27.6543 0.569283 26.5756 1.0427 25.6786L12.8716 3.26588Z" fill="url(#paint0_linear_2430_30003)"/>
<path d="M17.9214 15.2868C18.3426 14.2712 19.7383 14.1627 20.3112 15.1011L26.6626 25.5034C27.2332 26.438 26.5606 27.6368 25.4656 27.6368H23.7477C21.7708 27.6368 19.9309 26.6268 18.8695 24.9589L17.4829 22.78C16.4702 21.1886 16.2974 19.2034 17.0199 17.461L17.9214 15.2868Z" fill="url(#paint1_linear_2430_30003)"/>
<path d="M14.936 21.7137C15.2449 21.2069 16.0496 21.2225 16.2979 21.7614C16.9797 23.2413 17.6062 24.3106 18.3387 25.4071C18.9722 26.3552 18.3188 27.6371 17.1784 27.6371H9.46362C9.00643 27.6371 8.86628 26.9008 9.27611 26.6981C11.4611 25.6178 13.5361 24.0109 14.936 21.7137Z" fill="url(#paint2_linear_2430_30003)"/>
<defs>
<linearGradient id="paint0_linear_2430_30003" x1="15.1906" y1="7.87003" x2="0.936944" y2="34.9654" gradientUnits="userSpaceOnUse">
<stop offset="0.168487" stop-color="#3958E3"/>
<stop offset="1" stop-color="#617EFD"/>
</linearGradient>
<linearGradient id="paint1_linear_2430_30003" x1="19.4572" y1="14.1504" x2="22.1211" y2="27.5992" gradientUnits="userSpaceOnUse">
<stop stop-color="#1A3AC7"/>
<stop offset="1" stop-color="#4363F2"/>
</linearGradient>
<linearGradient id="paint2_linear_2430_30003" x1="17.1448" y1="16.6107" x2="22.0862" y2="27.5675" gradientUnits="userSpaceOnUse">
<stop stop-color="#1A3AC7"/>
<stop offset="1" stop-color="#4363F2"/>
</linearGradient>
</defs>
</svg>
